<svg xmlns="http://www.w3.org/2000/svg" width="32" height="32" viewBox="0 0 84.59 40.084">
  <g id="Header-Logo" transform="translate(0 0)">
    <path id="Path_1" data-name="Path 1" d="M903.106,625.449a4.553,4.553,0,0,1-.858,1.263,3.726,3.726,0,0,1-1.266.849,4.066,4.066,0,0,1-1.556.308,4.149,4.149,0,0,1-1.588-.308,3.887,3.887,0,0,1-1.266-.849,3.951,3.951,0,0,1-.837-1.263,4.025,4.025,0,0,1-.311-1.571,3.588,3.588,0,0,1,.322-1.507,4.722,4.722,0,0,1,.859-1.231,3.732,3.732,0,0,1,1.266-.849,4.089,4.089,0,0,1,3.112,0,3.892,3.892,0,0,1,1.266.849,4.285,4.285,0,0,1,.858,1.252,3.6,3.6,0,0,1,.322,1.518,3.773,3.773,0,0,1-.322,1.539m5.614-10.719h-5.292v2.451a6.516,6.516,0,0,0-5.365-2.462l-10.9.011V602.154h-8.917V614.73H864.917V602.154H856v31h8.917V621.915h13.316l.011,11.239h8.917V621.915H889.4a10.093,10.093,0,0,0-.2,2.069,9.624,9.624,0,0,0,.665,3.566,8.988,8.988,0,0,0,1.846,2.919,8.6,8.6,0,0,0,2.79,1.963,8.466,8.466,0,0,0,3.487.711,7.252,7.252,0,0,0,5.44-2.228V640.9h6.234V615.662a.937.937,0,0,0-.942-.932" transform="translate(-856 -600.819)" fill="#FD4539"/>
    <path id="Path_2" data-name="Path 2" d="M1054.181,622.469a8.213,8.213,0,1,1,8.3-8.212,8.258,8.258,0,0,1-8.3,8.212m0-25.048a17.007,17.007,0,0,0-16.276,11.894h2.266a2.134,2.134,0,0,1,2.144,2.12v14.888a16.927,16.927,0,1,0,11.867-28.9" transform="translate(-986.614 -597.421)" fill="#FD4539"/>
  </g>
</svg> 