<?xml version="1.0" encoding="UTF-8"?>
<svg width="256" height="256" viewBox="0 0 256 256" fill="none" xmlns="http://www.w3.org/2000/svg">
    <path d="M224 128c0-8.064-.576-15.872-1.664-23.36H128v44.16h53.76c-2.304 12.48-9.344 23.04-19.968 30.144v25.056h32.384C213.92 184.064 224 158.08 224 128z" fill="#4285F4"/>
    <path d="M128 224c27.072 0 49.792-8.96 66.368-24.256l-32.384-25.056c-8.96 6.016-20.48 9.568-33.984 9.568-26.112 0-48.256-17.664-56.128-41.344H37.888v25.856C54.272 201.088 88.576 224 128 224z" fill="#34A853"/>
    <path d="M71.872 142.912c-2.048-6.016-3.2-12.416-3.2-19.072s1.152-13.056 3.2-19.072V78.912H37.888C31.872 93.44 28.672 109.312 28.672 128s3.2 34.56 9.216 49.088l33.984-34.176z" fill="#FBBC05"/>
    <path d="M128 67.584c14.72 0 27.968 5.056 38.4 15.04l28.736-28.736C177.28 36.864 154.56 28.16 128 28.16c-39.424 0-73.728 22.912-90.112 56.192l33.984 25.856c7.872-23.68 30.016-42.624 56.128-42.624z" fill="#EA4335"/>
</svg> 